<?xml version="1.0" encoding="UTF-8"?>
<svg version="1.1" xmlns="http://www.w3.org/2000/svg" width="500" height="500">
<path d="M0 0 C1.05896484 -0.02900391 2.11792969 -0.05800781 3.20898438 -0.08789062 C4.73942383 -0.10045898 4.73942383 -0.10045898 6.30078125 -0.11328125 C7.23704346 -0.12786377 8.17330566 -0.14244629 9.13793945 -0.1574707 C13.41424472 0.63079777 15.04640198 3.40000441 17.45166016 6.82348633 C18.03737793 7.75443115 18.6230957 8.68537598 19.2265625 9.64453125 C19.88406494 10.6823877 20.54156738 11.72024414 21.21899414 12.78955078 C21.90985107 13.89024902 22.60070801 14.99094727 23.3125 16.125 C24.75923379 18.41173467 26.20975795 20.69605714 27.66015625 22.98046875 C28.3577002 24.08052246 29.05524414 25.18057617 29.77392578 26.31396484 C32.05390675 29.88665256 34.38172912 33.42292875 36.75 36.9375 C40.99960085 43.25155841 45.16133616 49.62082472 49.3125 56 C54.39088905 63.80271337 59.48880416 71.58919788 64.6875 79.3125 C68.63080793 74.79987334 68.63080793 74.79987334 70.6875 69.3125 C69.54939174 66.80356105 68.42158969 64.86794773 66.875 62.625 C66.42922607 61.94638916 65.98345215 61.26777832 65.52416992 60.56860352 C64.50379287 59.01828816 63.47527923 57.4733097 62.44042969 55.93261719 C60.52278002 53.06629181 58.63814757 50.17999815 56.7578125 47.2890625 C53.88380819 42.87265695 51.00360106 38.4604304 48.11328125 34.0546875 C47.74843124 33.49849731 47.38358124 32.94230713 47.00767517 32.3692627 C45.16363386 29.55913033 43.31788806 26.75012852 41.47021484 23.94238281 C39.37333795 20.75497945 37.28026652 17.56510299 35.1875 14.375 C34.22614136 12.91888306 34.22614136 12.91888306 33.24536133 11.43334961 C32.65907959 10.5388208 32.07279785 9.64429199 31.46875 8.72265625 C30.95376953 7.94027588 30.43878906 7.15789551 29.90820312 6.35180664 C28.6875 4.3125 28.6875 4.3125 27.6875 1.3125 C30.18904661 -1.18904661 36.52371991 -0.11424798 39.875 -0.1875 C40.91720703 -0.24164063 41.95941406 -0.29578125 43.03320312 -0.3515625 C50.55092744 -0.48538086 50.55092744 -0.48538086 53.61035156 1.66235352 C55.19606162 3.45970917 56.44792676 5.26291615 57.6875 7.3125 C58.0599585 7.8698584 58.43241699 8.4272168 58.81616211 9.00146484 C59.9462584 10.7252887 61.00699383 12.47960917 62.0625 14.25 C67.2766601 22.81746579 72.86823549 31.12003669 78.50537109 39.41381836 C79.17648926 40.40905518 79.84760742 41.40429199 80.5390625 42.4296875 C81.14572754 43.32284668 81.75239258 44.21600586 82.37744141 45.13623047 C83.6875 47.3125 83.6875 47.3125 83.6875 49.3125 C87.7102485 45.6073369 90.37297181 41.86369252 93.0625 37.125 C96.09561422 31.92295494 99.26797835 26.94960613 102.79296875 22.0625 C105.77411402 17.73522934 108.49708185 13.24673006 111.22436523 8.75610352 C111.83260132 7.76501587 111.83260132 7.76501587 112.453125 6.75390625 C112.81180664 6.16295166 113.17048828 5.57199707 113.54003906 4.96313477 C114.83079357 3.10637067 115.88661889 1.69867208 117.6875 0.3125 C120.1394043 -0.02807617 120.1394043 -0.02807617 123.01171875 0.01953125 C124.03974609 0.02919922 125.06777344 0.03886719 126.12695312 0.04882812 C127.19880859 0.07396484 128.27066406 0.09910156 129.375 0.125 C130.45845703 0.13853516 131.54191406 0.15207031 132.65820312 0.16601562 C135.33513405 0.20139357 138.01106838 0.25075811 140.6875 0.3125 C140.6875 5.17815863 138.87438683 7.69959655 136.3125 11.625 C135.85770264 12.33648193 135.40290527 13.04796387 134.93432617 13.78100586 C131.6076367 18.96191569 128.20441589 24.09269441 124.77172852 29.20385742 C121.04800159 34.74954822 117.39400132 40.33916324 113.75 45.9375 C107.84379488 55.00687373 101.92870631 64.07032335 96 73.125 C95.59555664 73.74290405 95.19111328 74.36080811 94.77441406 74.99743652 C89.34577243 83.28919607 83.89316341 91.56416401 78.33911133 99.77270508 C75.5901586 103.85881923 73.09303662 108.01467702 70.6875 112.3125 C69.44665763 114.44756584 68.18510621 116.33179501 66.6875 118.3125 C65.6975 118.3125 64.7075 118.3125 63.6875 118.3125 C63.6875 117.6525 63.6875 116.9925 63.6875 116.3125 C63.0275 116.3125 62.3675 116.3125 61.6875 116.3125 C59.91077796 113.7207965 58.25607566 111.11986222 56.625 108.4375 C55.53585971 106.67974532 54.44459692 104.92330457 53.3515625 103.16796875 C52.76149414 102.21970215 52.17142578 101.27143555 51.56347656 100.29443359 C48.27618007 95.06915517 44.88680509 89.91112306 41.5 84.75 C40.78207275 83.65469971 40.06414551 82.55939941 39.32446289 81.4309082 C37.85086324 79.18303496 36.37655999 76.93562509 34.90185547 74.68847656 C31.28215592 69.17162521 27.67282697 63.64798734 24.0625 58.125 C23.01002075 56.5152832 23.01002075 56.5152832 21.9362793 54.87304688 C15.41602118 44.89973256 8.89980835 34.92379765 2.39794922 24.93847656 C1.26751048 23.20296428 0.1363385 21.46792935 -0.99560547 19.73339844 C-2.54078942 17.36526131 -4.08327764 14.99539168 -5.625 12.625 C-6.07536621 11.93591553 -6.52573242 11.24683105 -6.98974609 10.53686523 C-8.93856063 7.53437996 -10.819442 4.57083099 -12.3125 1.3125 C-9.82909749 -1.17090251 -3.33344815 0.03010338 0 0 Z " fill="#EAEAEA" transform="translate(165.3125,139.6875)"/>
<path d="M0 0 C1.12212891 0.03158203 2.24425781 0.06316406 3.40039062 0.09570312 C6.16543172 0.17806605 8.92512302 0.29301425 11.6875 0.4375 C11.13476968 3.96039232 10.32017665 6.42466379 8.34375 9.38671875 C7.84810547 10.13888672 7.35246094 10.89105469 6.84179688 11.66601562 C6.29587891 12.47748047 5.74996094 13.28894531 5.1875 14.125 C3.99987774 15.92049205 2.81238428 17.71606931 1.625 19.51171875 C0.66980469 20.94717041 0.66980469 20.94717041 -0.3046875 22.41162109 C-3.83658854 27.73438149 -7.32063963 33.08842606 -10.8125 38.4375 C-11.54542878 39.55828112 -12.27850178 40.67896794 -13.01171875 41.79956055 C-17.28989381 48.33827492 -21.55777573 54.88350555 -25.8125 61.4375 C-30.79640286 69.1147241 -35.80103506 76.77824357 -40.8125 84.4375 C-47.48038544 94.62884506 -54.12907362 104.83242074 -60.76074219 115.04736328 C-65.06280893 121.67373732 -65.06280893 121.67373732 -66.99232483 124.63435364 C-68.06194943 126.28477877 -69.12398595 127.9401697 -70.17521667 129.60237122 C-72.99752107 134.03392138 -75.91430119 138.26640921 -79.19018555 142.37597656 C-91.41545832 158.28623014 -92.34525059 171.77724254 -91.75 191.375 C-91.71435185 194.11258235 -91.70165633 196.85011623 -91.68945312 199.58789062 C-91.64282364 206.20740961 -91.51233033 212.82092255 -91.3125 219.4375 C-95.37889825 220.5741726 -99.30520758 220.58487223 -103.5 220.5625 C-104.60504883 220.56830078 -104.60504883 220.56830078 -105.73242188 220.57421875 C-111.18581509 220.56418491 -111.18581509 220.56418491 -112.3125 219.4375 C-112.45392385 217.45738702 -112.52499405 215.47222134 -112.56884766 213.48754883 C-112.59782135 212.21144241 -112.62679504 210.935336 -112.65664673 209.62055969 C-112.74671835 204.50225131 -112.81414003 199.38362967 -112.86094093 194.26474476 C-112.89649259 190.38777636 -112.94923309 186.51291928 -113.04638672 182.63696289 C-113.14023101 178.88134362 -113.18802518 175.12758085 -113.20533371 171.37085533 C-113.21926991 169.95035548 -113.24854404 168.52990671 -113.29463577 167.11008644 C-113.66360495 155.14253576 -110.22919081 148.63915684 -103.3125 139.4375 C-101.98829997 137.46614229 -100.67379016 135.4881904 -99.375 133.5 C-98.02190742 131.47844733 -96.66767007 129.45766059 -95.3125 127.4375 C-89.54323257 118.83257 -83.84870058 110.19498543 -78.3125 101.4375 C-73.26093941 93.50882877 -68.13174521 85.64017264 -62.90087891 77.82861328 C-59.9437019 73.40491553 -57.06126936 68.93982722 -54.21875 64.44140625 C-48.66379207 55.68779426 -43.03866336 46.97596945 -37.25 38.375 C-33.67554426 33.04634525 -30.27995202 27.61687375 -26.89355469 22.16796875 C-23.79657581 17.19162663 -20.65321076 12.254967 -17.3125 7.4375 C-16.8937561 6.55396851 -16.8937561 6.55396851 -16.46655273 5.65258789 C-12.6764788 -1.31126635 -7.24811212 -0.38549281 0 0 Z " fill="#EBEBEB" transform="translate(334.3125,139.5625)"/>
<path d="M0 0 C0.66 0.33 1.32 0.66 2 1 C2.72025548 23.05353689 3.18433477 45.062296 2.625 67.125 C2.60357941 68.02515839 2.58215881 68.92531677 2.56008911 69.85275269 C2.49753846 72.38386058 2.42676193 74.91455182 2.3515625 77.4453125 C2.33166763 78.2005571 2.31177277 78.9558017 2.29127502 79.7339325 C2.11705032 84.88294968 2.11705032 84.88294968 1 86 C-1.98866642 86.10011296 -4.94910453 86.13873975 -7.9375 86.125 C-8.77474609 86.12886719 -9.61199219 86.13273437 -10.47460938 86.13671875 C-11.27576172 86.13542969 -12.07691406 86.13414062 -12.90234375 86.1328125 C-13.63960693 86.13168457 -14.37687012 86.13055664 -15.13647461 86.12939453 C-17 86 -17 86 -19 85 C-22.22845158 64.00655156 -24.96248528 33.3686889 -12.1875 15.375 C-9.93493711 12.42263975 -7.55425597 9.69184605 -5 7 C-2.21555689 3.67888324 -2.21555689 3.67888324 0 0 Z " fill="#E8E8E8" transform="translate(274,274)"/>
<path d="M0 0 C0.66 0 1.32 0 2 0 C2 24.75 2 49.5 2 75 C1.67 75 1.34 75 1 75 C0.9845388 73.67242172 0.9845388 73.67242172 0.96876526 72.31802368 C0.87090733 63.98924184 0.76840973 55.66053293 0.66066074 47.33187294 C0.60542678 43.04972559 0.55200602 38.76757142 0.50268555 34.48535156 C0.45504897 30.35506512 0.40270642 26.22486299 0.34705925 22.09467697 C0.32663249 20.51659613 0.30791994 18.93849217 0.29092598 17.36037064 C0.26688903 15.15503811 0.23683366 12.94986549 0.20532227 10.74462891 C0.18977798 9.48776276 0.1742337 8.23089661 0.15821838 6.9359436 C0.19909528 4.06616168 0.19909528 4.06616168 -1 2 C-0.67 1.34 -0.34 0.68 0 0 Z " fill="#F1F1F1" transform="translate(273,276)"/>
<path d="M0 0 C1.02544922 -0.00128906 2.05089844 -0.00257813 3.10742188 -0.00390625 C4.72680664 0.00189453 4.72680664 0.00189453 6.37890625 0.0078125 C7.45462891 0.00394531 8.53035156 0.00007812 9.63867188 -0.00390625 C11.1787793 -0.00197266 11.1787793 -0.00197266 12.75 0 C13.69673584 0.00112793 14.64347168 0.00225586 15.61889648 0.00341797 C17.94140625 0.1328125 17.94140625 0.1328125 19.94140625 1.1328125 C19.61140625 1.7928125 19.28140625 2.4528125 18.94140625 3.1328125 C12.01140625 3.1328125 5.08140625 3.1328125 -2.05859375 3.1328125 C-1.72859375 4.7828125 -1.39859375 6.4328125 -1.05859375 8.1328125 C-3.39918012 6.00500671 -4.76559681 4.01719029 -6.05859375 1.1328125 C-4.37836375 -0.5474175 -2.30083447 0.00274446 0 0 Z " fill="#787878" transform="translate(159.05859375,139.8671875)"/>
<path d="M0 0 C0.9583374 0.00523682 1.9166748 0.01047363 2.90405273 0.01586914 C4.45576172 0.02070313 4.45576172 0.02070313 6.03881836 0.02563477 C7.12743164 0.03401367 8.21604492 0.04239258 9.33764648 0.05102539 C10.97636719 0.05779297 10.97636719 0.05779297 12.64819336 0.06469727 C15.35723144 0.07652713 18.06616248 0.09300996 20.77514648 0.11352539 C20.77514648 1.43352539 20.77514648 2.75352539 20.77514648 4.11352539 C20.44514648 3.45352539 20.11514648 2.79352539 19.77514648 2.11352539 C16.17034702 2.22331624 12.56659969 2.35396584 8.96264648 2.48852539 C7.93848633 2.51946289 6.91432617 2.55040039 5.85913086 2.58227539 C4.38476562 2.6402832 4.38476562 2.6402832 2.88061523 2.69946289 C1.52166138 2.74659424 1.52166138 2.74659424 0.13525391 2.79467773 C-2.49010744 2.97380458 -2.49010744 2.97380458 -5.22485352 5.11352539 C-2.82019773 0.14390343 -2.82019773 0.14390343 0 0 Z " fill="#757575" transform="translate(285.224853515625,139.886474609375)"/>
<path d="M0 0 C7.92 0 15.84 0 24 0 C23.67 1.65 23.34 3.3 23 5 C22.67 4.01 22.34 3.02 22 2 C14.41 2.33 6.82 2.66 -1 3 C-0.67 2.01 -0.34 1.02 0 0 Z " fill="#787878" transform="translate(322,140)"/>
<path d="M0 0 C0.64453125 1.765625 0.64453125 1.765625 1 4 C0.07421875 5.921875 0.07421875 5.921875 -1.3125 7.75 C-1.98732422 8.67039062 -1.98732422 8.67039062 -2.67578125 9.609375 C-3.11277344 10.06828125 -3.54976563 10.5271875 -4 11 C-4.66 11 -5.32 11 -6 11 C-4.54955729 6.89041233 -2.48889248 3.56741255 0 0 Z " fill="#8F8F8F" transform="translate(268,283)"/>
<path d="M0 0 C0.66 0.99 1.32 1.98 2 3 C-0.31 4.98 -2.62 6.96 -5 9 C-3.44455189 5.88910379 -1.80979645 2.96148509 0 0 Z " fill="#999999" transform="translate(261,294)"/>
<path d="M0 0 C0.66 0.33 1.32 0.66 2 1 C2 2.98 2 4.96 2 7 C0.02 7.99 0.02 7.99 -2 9 C-1.67 7.88625 -1.34 6.7725 -1 5.625 C0.088643 2.30540283 0.088643 2.30540283 0 0 Z " fill="#888888" transform="translate(236,207)"/>
<path d="M0 0 C1 2 1 2 0.25 4.5625 C-1 7 -1 7 -4 8 C-2.87548273 5.0280615 -1.77706209 2.66559313 0 0 Z " fill="#858585" transform="translate(262,171)"/>
<path d="M0 0 C0.66 1.32 1.32 2.64 2 4 C-0.31 5.65 -2.62 7.3 -5 9 C-3.50163895 5.88801935 -1.80066242 2.9465385 0 0 Z " fill="#8D8D8D" transform="translate(270,159)"/>
<path d="" fill="#000000" transform="translate(0,0)"/>
<path d="" fill="#000000" transform="translate(0,0)"/>
<path d="" fill="#000000" transform="translate(0,0)"/>
<path d="" fill="#000000" transform="translate(0,0)"/>
<path d="" fill="#000000" transform="translate(0,0)"/>
<path d="" fill="#000000" transform="translate(0,0)"/>
<path d="" fill="#000000" transform="translate(0,0)"/>
<path d="" fill="#000000" transform="translate(0,0)"/>
<path d="" fill="#000000" transform="translate(0,0)"/>
<path d="" fill="#000000" transform="translate(0,0)"/>
<path d="" fill="#000000" transform="translate(0,0)"/>
<path d="" fill="#000000" transform="translate(0,0)"/>
<path d="" fill="#000000" transform="translate(0,0)"/>
<path d="" fill="#000000" transform="translate(0,0)"/>
<path d="" fill="#000000" transform="translate(0,0)"/>
<path d="" fill="#000000" transform="translate(0,0)"/>
<path d="" fill="#000000" transform="translate(0,0)"/>
<path d="" fill="#000000" transform="translate(0,0)"/>
<path d="" fill="#000000" transform="translate(0,0)"/>
<path d="" fill="#000000" transform="translate(0,0)"/>
<path d="" fill="#000000" transform="translate(0,0)"/>
<path d="" fill="#000000" transform="translate(0,0)"/>
<path d="" fill="#000000" transform="translate(0,0)"/>
<path d="" fill="#000000" transform="translate(0,0)"/>
<path d="" fill="#000000" transform="translate(0,0)"/>
<path d="" fill="#000000" transform="translate(0,0)"/>
<path d="" fill="#000000" transform="translate(0,0)"/>
<path d="" fill="#000000" transform="translate(0,0)"/>
<path d="" fill="#000000" transform="translate(0,0)"/>
<path d="" fill="#000000" transform="translate(0,0)"/>
<path d="" fill="#000000" transform="translate(0,0)"/>
<path d="" fill="#000000" transform="translate(0,0)"/>
<path d="" fill="#000000" transform="translate(0,0)"/>
<path d="" fill="#000000" transform="translate(0,0)"/>
<path d="" fill="#000000" transform="translate(0,0)"/>
<path d="" fill="#000000" transform="translate(0,0)"/>
<path d="" fill="#000000" transform="translate(0,0)"/>
<path d="" fill="#000000" transform="translate(0,0)"/>
<path d="" fill="#000000" transform="translate(0,0)"/>
<path d="" fill="#000000" transform="translate(0,0)"/>
<path d="" fill="#000000" transform="translate(0,0)"/>
<path d="" fill="#000000" transform="translate(0,0)"/>
<path d="" fill="#000000" transform="translate(0,0)"/>
<path d="" fill="#000000" transform="translate(0,0)"/>
<path d="" fill="#000000" transform="translate(0,0)"/>
<path d="" fill="#000000" transform="translate(0,0)"/>
<path d="" fill="#000000" transform="translate(0,0)"/>
<path d="" fill="#000000" transform="translate(0,0)"/>
<path d="" fill="#000000" transform="translate(0,0)"/>
<path d="" fill="#000000" transform="translate(0,0)"/>
<path d="" fill="#000000" transform="translate(0,0)"/>
<path d="" fill="#000000" transform="translate(0,0)"/>
<path d="" fill="#000001" transform="translate(0,0)"/>
<path d="" fill="#000000" transform="translate(0,0)"/>
<path d="" fill="#000000" transform="translate(0,0)"/>
<path d="" fill="#000000" transform="translate(0,0)"/>
<path d="" fill="#000000" transform="translate(0,0)"/>
<path d="" fill="#000000" transform="translate(0,0)"/>
<path d="" fill="#000000" transform="translate(0,0)"/>
<path d="" fill="#000000" transform="translate(0,0)"/>
<path d="" fill="#000000" transform="translate(0,0)"/>
<path d="" fill="#000000" transform="translate(0,0)"/>
<path d="" fill="#000000" transform="translate(0,0)"/>
<path d="" fill="#000000" transform="translate(0,0)"/>
<path d="" fill="#000000" transform="translate(0,0)"/>
<path d="" fill="#000000" transform="translate(0,0)"/>
<path d="" fill="#000000" transform="translate(0,0)"/>
<path d="" fill="#000000" transform="translate(0,0)"/>
<path d="" fill="#000000" transform="translate(0,0)"/>
<path d="" fill="#000000" transform="translate(0,0)"/>
<path d="" fill="#000000" transform="translate(0,0)"/>
<path d="" fill="#000000" transform="translate(0,0)"/>
<path d="" fill="#000000" transform="translate(0,0)"/>
<path d="" fill="#000000" transform="translate(0,0)"/>
<path d="" fill="#000000" transform="translate(0,0)"/>
<path d="" fill="#000000" transform="translate(0,0)"/>
<path d="" fill="#000000" transform="translate(0,0)"/>
<path d="" fill="#000000" transform="translate(0,0)"/>
<path d="" fill="#000000" transform="translate(0,0)"/>
<path d="" fill="#000000" transform="translate(0,0)"/>
<path d="" fill="#000000" transform="translate(0,0)"/>
<path d="" fill="#000000" transform="translate(0,0)"/>
<path d="" fill="#000000" transform="translate(0,0)"/>
<path d="" fill="#000000" transform="translate(0,0)"/>
<path d="" fill="#000000" transform="translate(0,0)"/>
<path d="" fill="#000000" transform="translate(0,0)"/>
<path d="" fill="#000000" transform="translate(0,0)"/>
<path d="" fill="#000000" transform="translate(0,0)"/>
</svg>
